<svg width="40" height="40" viewBox="0 0 40 40" fill="none" xmlns="http://www.w3.org/2000/svg">
<path d="M0 20C0 31.0457 8.9543 40 20 40C31.0457 40 40 31.0457 40 20C40 8.9543 31.0457 0 20 0C8.9543 0 0 8.9543 0 20Z" fill="#333333" fill-opacity="0.8"/>
<path d="M18.2703 12C14.8073 12 12 14.8073 12 18.2703C12 21.7332 14.8073 24.5405 18.2703 24.5405C19.7681 24.5405 21.1433 24.0153 22.2217 23.139L26.8927 27.81C27.146 28.0633 27.5567 28.0633 27.81 27.81C28.0633 27.5567 28.0633 27.146 27.81 26.8927L23.139 22.2217C24.0153 21.1433 24.5405 19.7681 24.5405 18.2703C24.5405 14.8073 21.7332 12 18.2703 12ZM18.2703 13.2973C21.0168 13.2973 23.2432 15.5238 23.2432 18.2703C23.2432 21.0168 21.0168 23.2432 18.2703 23.2432C15.5238 23.2432 13.2973 21.0168 13.2973 18.2703C13.2973 15.5238 15.5238 13.2973 18.2703 13.2973Z" fill="white"/>
</svg>
